<mxfile host="Electron" modified="2024-04-04T22:15:24.808Z" agent="Mozilla/5.0 (Windows NT 10.0; Win64; x64) AppleWebKit/537.36 (KHTML, like Gecko) draw.io/24.1.0 Chrome/120.0.6099.109 Electron/28.1.0 Safari/537.36" etag="Yglom685-BzOqgNkTqm_" version="24.1.0" type="device">
  <diagram name="Page-1" id="JEL9Oo44FVJsY-cpVkPd">
    <mxGraphModel dx="1339" dy="669" grid="1" gridSize="10" guides="1" tooltips="1" connect="1" arrows="1" fold="1" page="1" pageScale="1" pageWidth="850" pageHeight="1100" math="0" shadow="0">
      <root>
        <mxCell id="0" />
        <mxCell id="1" parent="0" />
        <mxCell id="_qnqYTBfjgfQOyNXT5wn-3" value="" style="edgeStyle=orthogonalEdgeStyle;rounded=0;orthogonalLoop=1;jettySize=auto;html=1;" edge="1" parent="1" source="_qnqYTBfjgfQOyNXT5wn-1" target="_qnqYTBfjgfQOyNXT5wn-2">
          <mxGeometry relative="1" as="geometry" />
        </mxCell>
        <mxCell id="_qnqYTBfjgfQOyNXT5wn-4" value="Es una" style="edgeLabel;html=1;align=center;verticalAlign=middle;resizable=0;points=[];" vertex="1" connectable="0" parent="_qnqYTBfjgfQOyNXT5wn-3">
          <mxGeometry x="-0.2686" y="-2" relative="1" as="geometry">
            <mxPoint x="2" y="5" as="offset" />
          </mxGeometry>
        </mxCell>
        <mxCell id="_qnqYTBfjgfQOyNXT5wn-6" value="" style="edgeStyle=orthogonalEdgeStyle;rounded=0;orthogonalLoop=1;jettySize=auto;html=1;" edge="1" parent="1" source="_qnqYTBfjgfQOyNXT5wn-1" target="_qnqYTBfjgfQOyNXT5wn-5">
          <mxGeometry relative="1" as="geometry" />
        </mxCell>
        <mxCell id="_qnqYTBfjgfQOyNXT5wn-7" value="Se usa para" style="edgeLabel;html=1;align=center;verticalAlign=middle;resizable=0;points=[];" vertex="1" connectable="0" parent="_qnqYTBfjgfQOyNXT5wn-6">
          <mxGeometry x="0.07" y="-2" relative="1" as="geometry">
            <mxPoint x="5" y="38" as="offset" />
          </mxGeometry>
        </mxCell>
        <mxCell id="_qnqYTBfjgfQOyNXT5wn-21" value="" style="edgeStyle=orthogonalEdgeStyle;rounded=0;orthogonalLoop=1;jettySize=auto;html=1;" edge="1" parent="1" target="_qnqYTBfjgfQOyNXT5wn-20">
          <mxGeometry relative="1" as="geometry">
            <mxPoint x="210" y="300" as="sourcePoint" />
          </mxGeometry>
        </mxCell>
        <mxCell id="_qnqYTBfjgfQOyNXT5wn-23" value="Posee&amp;nbsp;&lt;div&gt;ciertas&lt;/div&gt;" style="edgeLabel;html=1;align=center;verticalAlign=middle;resizable=0;points=[];" vertex="1" connectable="0" parent="_qnqYTBfjgfQOyNXT5wn-21">
          <mxGeometry x="0.371" y="1" relative="1" as="geometry">
            <mxPoint as="offset" />
          </mxGeometry>
        </mxCell>
        <mxCell id="_qnqYTBfjgfQOyNXT5wn-1" value="Mapas Conceptuales" style="ellipse;whiteSpace=wrap;html=1;" vertex="1" parent="1">
          <mxGeometry x="300" y="280" width="120" height="40" as="geometry" />
        </mxCell>
        <mxCell id="_qnqYTBfjgfQOyNXT5wn-2" value="Herramienta de modelado" style="whiteSpace=wrap;html=1;" vertex="1" parent="1">
          <mxGeometry x="310" y="360" width="100" height="40" as="geometry" />
        </mxCell>
        <mxCell id="_qnqYTBfjgfQOyNXT5wn-16" value="" style="edgeStyle=orthogonalEdgeStyle;rounded=0;orthogonalLoop=1;jettySize=auto;html=1;" edge="1" parent="1" source="_qnqYTBfjgfQOyNXT5wn-5" target="_qnqYTBfjgfQOyNXT5wn-14">
          <mxGeometry relative="1" as="geometry" />
        </mxCell>
        <mxCell id="_qnqYTBfjgfQOyNXT5wn-18" value="" style="edgeStyle=orthogonalEdgeStyle;rounded=0;orthogonalLoop=1;jettySize=auto;html=1;" edge="1" parent="1" source="_qnqYTBfjgfQOyNXT5wn-5" target="_qnqYTBfjgfQOyNXT5wn-8">
          <mxGeometry relative="1" as="geometry" />
        </mxCell>
        <mxCell id="_qnqYTBfjgfQOyNXT5wn-19" value="Pueden ser" style="edgeLabel;html=1;align=center;verticalAlign=middle;resizable=0;points=[];" vertex="1" connectable="0" parent="_qnqYTBfjgfQOyNXT5wn-18">
          <mxGeometry x="-0.5765" y="1" relative="1" as="geometry">
            <mxPoint as="offset" />
          </mxGeometry>
        </mxCell>
        <mxCell id="_qnqYTBfjgfQOyNXT5wn-5" value="Representacion significados conceptuales" style="whiteSpace=wrap;html=1;" vertex="1" parent="1">
          <mxGeometry x="430" y="360" width="140" height="40" as="geometry" />
        </mxCell>
        <mxCell id="_qnqYTBfjgfQOyNXT5wn-8" value="Explicitas" style="whiteSpace=wrap;html=1;" vertex="1" parent="1">
          <mxGeometry x="430" y="440" width="60" height="20" as="geometry" />
        </mxCell>
        <mxCell id="_qnqYTBfjgfQOyNXT5wn-14" value="Implicitas" style="whiteSpace=wrap;html=1;" vertex="1" parent="1">
          <mxGeometry x="510" y="440" width="60" height="20" as="geometry" />
        </mxCell>
        <mxCell id="_qnqYTBfjgfQOyNXT5wn-48" value="" style="edgeStyle=none;rounded=0;orthogonalLoop=1;jettySize=auto;html=1;" edge="1" parent="1" source="_qnqYTBfjgfQOyNXT5wn-20" target="_qnqYTBfjgfQOyNXT5wn-35">
          <mxGeometry relative="1" as="geometry" />
        </mxCell>
        <mxCell id="_qnqYTBfjgfQOyNXT5wn-49" value="" style="edgeStyle=none;rounded=0;orthogonalLoop=1;jettySize=auto;html=1;" edge="1" parent="1" source="_qnqYTBfjgfQOyNXT5wn-20" target="_qnqYTBfjgfQOyNXT5wn-35">
          <mxGeometry relative="1" as="geometry" />
        </mxCell>
        <mxCell id="_qnqYTBfjgfQOyNXT5wn-20" value="Caracterisitcas" style="whiteSpace=wrap;html=1;" vertex="1" parent="1">
          <mxGeometry x="110" y="390" width="90" height="20" as="geometry" />
        </mxCell>
        <mxCell id="_qnqYTBfjgfQOyNXT5wn-28" value="" style="edgeStyle=orthogonalEdgeStyle;rounded=0;orthogonalLoop=1;jettySize=auto;html=1;" edge="1" parent="1" target="_qnqYTBfjgfQOyNXT5wn-30">
          <mxGeometry relative="1" as="geometry">
            <mxPoint x="155" y="420" as="sourcePoint" />
          </mxGeometry>
        </mxCell>
        <mxCell id="_qnqYTBfjgfQOyNXT5wn-30" value="Resumen esquematico" style="whiteSpace=wrap;html=1;" vertex="1" parent="1">
          <mxGeometry x="20" y="440" width="75" height="30" as="geometry" />
        </mxCell>
        <mxCell id="_qnqYTBfjgfQOyNXT5wn-36" value="" style="edgeStyle=none;rounded=0;orthogonalLoop=1;jettySize=auto;html=1;" edge="1" parent="1" source="_qnqYTBfjgfQOyNXT5wn-31" target="_qnqYTBfjgfQOyNXT5wn-35">
          <mxGeometry relative="1" as="geometry" />
        </mxCell>
        <mxCell id="_qnqYTBfjgfQOyNXT5wn-31" value="Jerarquia" style="whiteSpace=wrap;html=1;" vertex="1" parent="1">
          <mxGeometry x="125" y="440" width="60" height="20" as="geometry" />
        </mxCell>
        <mxCell id="_qnqYTBfjgfQOyNXT5wn-34" value="" style="endArrow=none;html=1;rounded=0;entryX=0.5;entryY=1;entryDx=0;entryDy=0;" edge="1" parent="1" target="_qnqYTBfjgfQOyNXT5wn-20">
          <mxGeometry width="50" height="50" relative="1" as="geometry">
            <mxPoint x="155" y="420" as="sourcePoint" />
            <mxPoint x="320" y="380" as="targetPoint" />
            <Array as="points" />
          </mxGeometry>
        </mxCell>
        <mxCell id="_qnqYTBfjgfQOyNXT5wn-35" value="Niveles de abstraccion" style="whiteSpace=wrap;html=1;" vertex="1" parent="1">
          <mxGeometry x="115" y="480" width="80" height="30" as="geometry" />
        </mxCell>
        <mxCell id="_qnqYTBfjgfQOyNXT5wn-45" value="" style="endArrow=classic;html=1;rounded=0;" edge="1" parent="1">
          <mxGeometry width="50" height="50" relative="1" as="geometry">
            <mxPoint x="154.8" y="420" as="sourcePoint" />
            <mxPoint x="155" y="440" as="targetPoint" />
          </mxGeometry>
        </mxCell>
        <mxCell id="_qnqYTBfjgfQOyNXT5wn-46" value="" style="endArrow=none;html=1;rounded=0;" edge="1" parent="1">
          <mxGeometry width="50" height="50" relative="1" as="geometry">
            <mxPoint x="210" y="300" as="sourcePoint" />
            <mxPoint x="300" y="300" as="targetPoint" />
          </mxGeometry>
        </mxCell>
        <mxCell id="_qnqYTBfjgfQOyNXT5wn-63" value="" style="edgeStyle=none;rounded=0;orthogonalLoop=1;jettySize=auto;html=1;entryX=0.5;entryY=0;entryDx=0;entryDy=0;" edge="1" parent="1" source="_qnqYTBfjgfQOyNXT5wn-47" target="_qnqYTBfjgfQOyNXT5wn-65">
          <mxGeometry relative="1" as="geometry">
            <mxPoint x="390" y="550" as="targetPoint" />
            <Array as="points">
              <mxPoint x="275" y="500" />
              <mxPoint x="470" y="500" />
            </Array>
          </mxGeometry>
        </mxCell>
        <mxCell id="_qnqYTBfjgfQOyNXT5wn-47" value="Representacion grafica" style="rounded=0;whiteSpace=wrap;html=1;" vertex="1" parent="1">
          <mxGeometry x="230" y="440" width="90" height="40" as="geometry" />
        </mxCell>
        <mxCell id="_qnqYTBfjgfQOyNXT5wn-50" value="" style="endArrow=classic;html=1;rounded=0;entryX=0.5;entryY=0;entryDx=0;entryDy=0;" edge="1" parent="1" target="_qnqYTBfjgfQOyNXT5wn-47">
          <mxGeometry width="50" height="50" relative="1" as="geometry">
            <mxPoint x="150" y="420" as="sourcePoint" />
            <mxPoint x="200" y="370" as="targetPoint" />
            <Array as="points">
              <mxPoint x="275" y="420" />
            </Array>
          </mxGeometry>
        </mxCell>
        <mxCell id="_qnqYTBfjgfQOyNXT5wn-52" value="" style="endArrow=classic;html=1;rounded=0;exitX=0.496;exitY=1.07;exitDx=0;exitDy=0;exitPerimeter=0;entryX=1;entryY=0.5;entryDx=0;entryDy=0;" edge="1" parent="1" source="_qnqYTBfjgfQOyNXT5wn-2" target="_qnqYTBfjgfQOyNXT5wn-47">
          <mxGeometry width="50" height="50" relative="1" as="geometry">
            <mxPoint x="335" y="470" as="sourcePoint" />
            <mxPoint x="385" y="420" as="targetPoint" />
            <Array as="points">
              <mxPoint x="360" y="460" />
            </Array>
          </mxGeometry>
        </mxCell>
        <mxCell id="_qnqYTBfjgfQOyNXT5wn-53" value="Que utiliza" style="edgeLabel;html=1;align=center;verticalAlign=middle;resizable=0;points=[];" vertex="1" connectable="0" parent="_qnqYTBfjgfQOyNXT5wn-52">
          <mxGeometry x="0.2727" relative="1" as="geometry">
            <mxPoint x="4" y="-40" as="offset" />
          </mxGeometry>
        </mxCell>
        <mxCell id="_qnqYTBfjgfQOyNXT5wn-60" value="" style="edgeStyle=none;rounded=0;orthogonalLoop=1;jettySize=auto;html=1;" edge="1" parent="1" source="_qnqYTBfjgfQOyNXT5wn-54" target="_qnqYTBfjgfQOyNXT5wn-59">
          <mxGeometry relative="1" as="geometry" />
        </mxCell>
        <mxCell id="_qnqYTBfjgfQOyNXT5wn-54" value="Generales" style="whiteSpace=wrap;html=1;" vertex="1" parent="1">
          <mxGeometry x="50" y="540" width="95" height="30" as="geometry" />
        </mxCell>
        <mxCell id="_qnqYTBfjgfQOyNXT5wn-62" value="" style="edgeStyle=none;rounded=0;orthogonalLoop=1;jettySize=auto;html=1;" edge="1" parent="1" source="_qnqYTBfjgfQOyNXT5wn-56" target="_qnqYTBfjgfQOyNXT5wn-61">
          <mxGeometry relative="1" as="geometry" />
        </mxCell>
        <mxCell id="_qnqYTBfjgfQOyNXT5wn-56" value="Especificos" style="whiteSpace=wrap;html=1;" vertex="1" parent="1">
          <mxGeometry x="160" y="540" width="95" height="30" as="geometry" />
        </mxCell>
        <mxCell id="_qnqYTBfjgfQOyNXT5wn-57" value="" style="endArrow=classic;html=1;rounded=0;exitX=0.436;exitY=1.018;exitDx=0;exitDy=0;exitPerimeter=0;entryX=0.483;entryY=-0.025;entryDx=0;entryDy=0;entryPerimeter=0;" edge="1" parent="1" source="_qnqYTBfjgfQOyNXT5wn-35" target="_qnqYTBfjgfQOyNXT5wn-54">
          <mxGeometry width="50" height="50" relative="1" as="geometry">
            <mxPoint x="330" y="570" as="sourcePoint" />
            <mxPoint x="380" y="520" as="targetPoint" />
            <Array as="points">
              <mxPoint x="150" y="520" />
              <mxPoint x="96" y="520" />
            </Array>
          </mxGeometry>
        </mxCell>
        <mxCell id="_qnqYTBfjgfQOyNXT5wn-58" value="" style="endArrow=classic;html=1;rounded=0;entryX=0.421;entryY=0;entryDx=0;entryDy=0;entryPerimeter=0;" edge="1" parent="1" target="_qnqYTBfjgfQOyNXT5wn-56">
          <mxGeometry width="50" height="50" relative="1" as="geometry">
            <mxPoint x="150" y="510" as="sourcePoint" />
            <mxPoint x="210" y="490" as="targetPoint" />
            <Array as="points">
              <mxPoint x="150" y="520" />
              <mxPoint x="200" y="520" />
            </Array>
          </mxGeometry>
        </mxCell>
        <mxCell id="_qnqYTBfjgfQOyNXT5wn-59" value="Inclusivos arriba" style="whiteSpace=wrap;html=1;" vertex="1" parent="1">
          <mxGeometry x="57.5" y="590" width="80" height="50" as="geometry" />
        </mxCell>
        <mxCell id="_qnqYTBfjgfQOyNXT5wn-61" value="Menos inclusivos abajo" style="whiteSpace=wrap;html=1;" vertex="1" parent="1">
          <mxGeometry x="166.25" y="590" width="82.5" height="50" as="geometry" />
        </mxCell>
        <mxCell id="_qnqYTBfjgfQOyNXT5wn-64" value="Rectangulos y lineas" style="rounded=0;whiteSpace=wrap;html=1;" vertex="1" parent="1">
          <mxGeometry x="270" y="540" width="120" height="30" as="geometry" />
        </mxCell>
        <mxCell id="_qnqYTBfjgfQOyNXT5wn-65" value="Elementos principales" style="rounded=0;whiteSpace=wrap;html=1;" vertex="1" parent="1">
          <mxGeometry x="410" y="540" width="120" height="30" as="geometry" />
        </mxCell>
        <mxCell id="_qnqYTBfjgfQOyNXT5wn-66" value="Otras formas de representar" style="rounded=0;whiteSpace=wrap;html=1;" vertex="1" parent="1">
          <mxGeometry x="690" y="535" width="120" height="30" as="geometry" />
        </mxCell>
        <mxCell id="_qnqYTBfjgfQOyNXT5wn-67" value="" style="endArrow=classic;html=1;rounded=0;entryX=0.5;entryY=0;entryDx=0;entryDy=0;" edge="1" parent="1" target="_qnqYTBfjgfQOyNXT5wn-64">
          <mxGeometry width="50" height="50" relative="1" as="geometry">
            <mxPoint x="470" y="520" as="sourcePoint" />
            <mxPoint x="310" y="520" as="targetPoint" />
            <Array as="points">
              <mxPoint x="330" y="520" />
            </Array>
          </mxGeometry>
        </mxCell>
        <mxCell id="_qnqYTBfjgfQOyNXT5wn-68" value="" style="endArrow=classic;html=1;rounded=0;entryX=0.5;entryY=0;entryDx=0;entryDy=0;" edge="1" parent="1" target="_qnqYTBfjgfQOyNXT5wn-66">
          <mxGeometry width="50" height="50" relative="1" as="geometry">
            <mxPoint x="470" y="520" as="sourcePoint" />
            <mxPoint x="460" y="500" as="targetPoint" />
            <Array as="points">
              <mxPoint x="750" y="520" />
            </Array>
          </mxGeometry>
        </mxCell>
        <mxCell id="_qnqYTBfjgfQOyNXT5wn-69" value="Conceptos" style="rounded=0;whiteSpace=wrap;html=1;" vertex="1" parent="1">
          <mxGeometry x="432.5" y="610" width="75" height="30" as="geometry" />
        </mxCell>
        <mxCell id="_qnqYTBfjgfQOyNXT5wn-70" value="Proposiciones" style="rounded=0;whiteSpace=wrap;html=1;" vertex="1" parent="1">
          <mxGeometry x="330" y="610" width="87.5" height="30" as="geometry" />
        </mxCell>
        <mxCell id="_qnqYTBfjgfQOyNXT5wn-71" value="Palabras enlace" style="rounded=0;whiteSpace=wrap;html=1;" vertex="1" parent="1">
          <mxGeometry x="522.5" y="610" width="87.5" height="30" as="geometry" />
        </mxCell>
        <mxCell id="_qnqYTBfjgfQOyNXT5wn-72" value="" style="endArrow=classic;html=1;rounded=0;exitX=0.5;exitY=1;exitDx=0;exitDy=0;entryX=0.5;entryY=0;entryDx=0;entryDy=0;" edge="1" parent="1" source="_qnqYTBfjgfQOyNXT5wn-65" target="_qnqYTBfjgfQOyNXT5wn-69">
          <mxGeometry width="50" height="50" relative="1" as="geometry">
            <mxPoint x="410" y="630" as="sourcePoint" />
            <mxPoint x="460" y="580" as="targetPoint" />
          </mxGeometry>
        </mxCell>
        <mxCell id="_qnqYTBfjgfQOyNXT5wn-73" value="" style="endArrow=classic;html=1;rounded=0;entryX=0.5;entryY=0;entryDx=0;entryDy=0;" edge="1" parent="1" target="_qnqYTBfjgfQOyNXT5wn-70">
          <mxGeometry width="50" height="50" relative="1" as="geometry">
            <mxPoint x="470" y="590" as="sourcePoint" />
            <mxPoint x="460" y="580" as="targetPoint" />
            <Array as="points">
              <mxPoint x="374" y="590" />
            </Array>
          </mxGeometry>
        </mxCell>
        <mxCell id="_qnqYTBfjgfQOyNXT5wn-76" value="" style="endArrow=classic;html=1;rounded=0;entryX=0.5;entryY=0;entryDx=0;entryDy=0;" edge="1" parent="1" target="_qnqYTBfjgfQOyNXT5wn-71">
          <mxGeometry width="50" height="50" relative="1" as="geometry">
            <mxPoint x="470" y="590" as="sourcePoint" />
            <mxPoint x="460" y="580" as="targetPoint" />
            <Array as="points">
              <mxPoint x="566" y="590" />
            </Array>
          </mxGeometry>
        </mxCell>
        <mxCell id="_qnqYTBfjgfQOyNXT5wn-77" value="Diagramas de flujo" style="rounded=0;whiteSpace=wrap;html=1;" vertex="1" parent="1">
          <mxGeometry x="690" y="690" width="110" height="30" as="geometry" />
        </mxCell>
        <mxCell id="_qnqYTBfjgfQOyNXT5wn-78" value="Organigramas" style="rounded=0;whiteSpace=wrap;html=1;" vertex="1" parent="1">
          <mxGeometry x="567.5" y="690" width="110" height="30" as="geometry" />
        </mxCell>
        <mxCell id="_qnqYTBfjgfQOyNXT5wn-79" value="Redes semanticas" style="rounded=0;whiteSpace=wrap;html=1;" vertex="1" parent="1">
          <mxGeometry x="442.5" y="690" width="110" height="30" as="geometry" />
        </mxCell>
        <mxCell id="_qnqYTBfjgfQOyNXT5wn-80" value="Mapas semanticos" style="rounded=0;whiteSpace=wrap;html=1;" vertex="1" parent="1">
          <mxGeometry x="320" y="690" width="110" height="30" as="geometry" />
        </mxCell>
        <mxCell id="_qnqYTBfjgfQOyNXT5wn-81" value="Redes conceptuales" style="rounded=0;whiteSpace=wrap;html=1;" vertex="1" parent="1">
          <mxGeometry x="200" y="690" width="110" height="30" as="geometry" />
        </mxCell>
        <mxCell id="_qnqYTBfjgfQOyNXT5wn-82" value="Teorias del aprendizaje y del conocimiento" style="rounded=0;whiteSpace=wrap;html=1;" vertex="1" parent="1">
          <mxGeometry x="448.75" y="780" width="102.5" height="50" as="geometry" />
        </mxCell>
        <mxCell id="_qnqYTBfjgfQOyNXT5wn-83" value="" style="endArrow=classic;html=1;rounded=0;exitX=0.5;exitY=1;exitDx=0;exitDy=0;entryX=0.5;entryY=0;entryDx=0;entryDy=0;" edge="1" parent="1" source="_qnqYTBfjgfQOyNXT5wn-77" target="_qnqYTBfjgfQOyNXT5wn-82">
          <mxGeometry width="50" height="50" relative="1" as="geometry">
            <mxPoint x="580" y="700" as="sourcePoint" />
            <mxPoint x="630" y="650" as="targetPoint" />
            <Array as="points">
              <mxPoint x="745" y="750" />
              <mxPoint x="500" y="750" />
            </Array>
          </mxGeometry>
        </mxCell>
        <mxCell id="_qnqYTBfjgfQOyNXT5wn-84" value="" style="endArrow=classic;html=1;rounded=0;exitX=0.5;exitY=1;exitDx=0;exitDy=0;entryX=0.5;entryY=0;entryDx=0;entryDy=0;" edge="1" parent="1" source="_qnqYTBfjgfQOyNXT5wn-81" target="_qnqYTBfjgfQOyNXT5wn-82">
          <mxGeometry width="50" height="50" relative="1" as="geometry">
            <mxPoint x="510" y="710" as="sourcePoint" />
            <mxPoint x="560" y="660" as="targetPoint" />
            <Array as="points">
              <mxPoint x="255" y="750" />
              <mxPoint x="500" y="750" />
            </Array>
          </mxGeometry>
        </mxCell>
        <mxCell id="_qnqYTBfjgfQOyNXT5wn-86" value="" style="endArrow=none;html=1;rounded=0;entryX=0.5;entryY=1;entryDx=0;entryDy=0;" edge="1" parent="1" target="_qnqYTBfjgfQOyNXT5wn-80">
          <mxGeometry width="50" height="50" relative="1" as="geometry">
            <mxPoint x="375" y="750" as="sourcePoint" />
            <mxPoint x="380" y="770" as="targetPoint" />
          </mxGeometry>
        </mxCell>
        <mxCell id="_qnqYTBfjgfQOyNXT5wn-87" value="" style="endArrow=none;html=1;rounded=0;entryX=0.5;entryY=1;entryDx=0;entryDy=0;" edge="1" parent="1">
          <mxGeometry width="50" height="50" relative="1" as="geometry">
            <mxPoint x="499.77" y="750" as="sourcePoint" />
            <mxPoint x="499.77" y="720" as="targetPoint" />
          </mxGeometry>
        </mxCell>
        <mxCell id="_qnqYTBfjgfQOyNXT5wn-88" value="" style="endArrow=none;html=1;rounded=0;entryX=0.5;entryY=1;entryDx=0;entryDy=0;" edge="1" parent="1">
          <mxGeometry width="50" height="50" relative="1" as="geometry">
            <mxPoint x="622.27" y="750" as="sourcePoint" />
            <mxPoint x="622.27" y="720" as="targetPoint" />
          </mxGeometry>
        </mxCell>
        <mxCell id="_qnqYTBfjgfQOyNXT5wn-89" value="" style="endArrow=classic;html=1;rounded=0;exitX=0.5;exitY=1;exitDx=0;exitDy=0;entryX=0.531;entryY=-0.044;entryDx=0;entryDy=0;entryPerimeter=0;" edge="1" parent="1" source="_qnqYTBfjgfQOyNXT5wn-66" target="_qnqYTBfjgfQOyNXT5wn-77">
          <mxGeometry width="50" height="50" relative="1" as="geometry">
            <mxPoint x="500" y="630" as="sourcePoint" />
            <mxPoint x="550" y="580" as="targetPoint" />
          </mxGeometry>
        </mxCell>
        <mxCell id="_qnqYTBfjgfQOyNXT5wn-90" value="" style="endArrow=classic;html=1;rounded=0;entryX=0.5;entryY=0;entryDx=0;entryDy=0;" edge="1" parent="1" target="_qnqYTBfjgfQOyNXT5wn-81">
          <mxGeometry width="50" height="50" relative="1" as="geometry">
            <mxPoint x="750" y="660" as="sourcePoint" />
            <mxPoint x="250" y="660" as="targetPoint" />
            <Array as="points">
              <mxPoint x="255" y="660" />
            </Array>
          </mxGeometry>
        </mxCell>
        <mxCell id="_qnqYTBfjgfQOyNXT5wn-91" value="" style="endArrow=classic;html=1;rounded=0;entryX=0.5;entryY=0;entryDx=0;entryDy=0;" edge="1" parent="1" target="_qnqYTBfjgfQOyNXT5wn-80">
          <mxGeometry width="50" height="50" relative="1" as="geometry">
            <mxPoint x="375" y="660" as="sourcePoint" />
            <mxPoint x="550" y="580" as="targetPoint" />
          </mxGeometry>
        </mxCell>
        <mxCell id="_qnqYTBfjgfQOyNXT5wn-93" value="" style="endArrow=classic;html=1;rounded=0;entryX=0.5;entryY=0;entryDx=0;entryDy=0;" edge="1" parent="1">
          <mxGeometry width="50" height="50" relative="1" as="geometry">
            <mxPoint x="499.86" y="660" as="sourcePoint" />
            <mxPoint x="499.86" y="690" as="targetPoint" />
          </mxGeometry>
        </mxCell>
        <mxCell id="_qnqYTBfjgfQOyNXT5wn-94" value="" style="endArrow=classic;html=1;rounded=0;entryX=0.5;entryY=0;entryDx=0;entryDy=0;" edge="1" parent="1">
          <mxGeometry width="50" height="50" relative="1" as="geometry">
            <mxPoint x="622.36" y="660" as="sourcePoint" />
            <mxPoint x="622.36" y="690" as="targetPoint" />
          </mxGeometry>
        </mxCell>
      </root>
    </mxGraphModel>
  </diagram>
</mxfile>
